<?xml version="1.0" encoding="UTF-8"?>
<svg width="176px" height="122px" viewBox="0 0 176 122" version="1.1" xmlns="http://www.w3.org/2000/svg" xmlns:xlink="http://www.w3.org/1999/xlink">
    <title>Group</title>
    <g id="General" stroke="none" stroke-width="1" fill="none" fill-rule="evenodd">
        <g id="13-Channel-[Light]" transform="translate(-124.000000, -447.000000)">
            <g id="Group" transform="translate(124.000000, 447.000000)">
                <g id="Group-5" transform="translate(30.000000, 19.000000)" fill="#4A5560">
                    <rect id="Rectangle" x="0" y="6" width="107" height="86" rx="20"></rect>
                    <g id="Group-4" transform="translate(26.000000, 0.000000)">
                        <rect id="Rectangle" x="0" y="0" width="11.2135922" height="6"></rect>
                        <rect id="Rectangle-Copy" x="21.8932039" y="0" width="11.2135922" height="6"></rect>
                        <rect id="Rectangle-Copy-2" x="43.7864078" y="0" width="11.2135922" height="6"></rect>
                    </g>
                </g>
                <rect id="Rectangle" fill="#FFFFFF" x="42" y="45" width="83" height="52" rx="2"></rect>
                <g id="Group-6" transform="translate(66.000000, 58.000000)" fill="#4A5560">
                    <circle id="Oval" cx="4" cy="4" r="4"></circle>
                    <circle id="Oval-Copy-3" cx="31" cy="4" r="4"></circle>
                </g>
                <rect id="Rectangle" fill="#4A5560" x="70" y="79" width="27" height="4" rx="2"></rect>
                <rect id="Rectangle-Copy-3" fill="#4A5560" transform="translate(160.000000, 25.500000) rotate(-25.000000) translate(-160.000000, -25.500000) " x="144" y="24" width="32" height="3" rx="1.5"></rect>
                <rect id="Rectangle-Copy-5" fill="#4A5560" transform="translate(147.000000, 9.500000) rotate(-45.000000) translate(-147.000000, -9.500000) " x="136" y="8" width="22" height="3" rx="1.5"></rect>
                <rect id="Rectangle-Copy-9" fill="#4A5560" transform="translate(15.500000, 115.500000) rotate(-35.000000) translate(-15.500000, -115.500000) " x="8" y="114" width="15" height="3" rx="1.5"></rect>
                <circle id="Oval" stroke="#1B85D6" stroke-width="2" cx="154" cy="102" r="5"></circle>
                <circle id="Oval-Copy-5" stroke="#4A5560" stroke-width="2" cx="158.5" cy="65.5" r="3.5"></circle>
                <circle id="Oval-Copy-4" stroke="#1B85D6" stroke-width="2" cx="6" cy="73" r="5"></circle>
                <g id="close-24px-(9)" transform="translate(13.000000, 22.000000) rotate(-29.000000) translate(-13.000000, -22.000000) translate(6.000000, 15.000000)" fill="#4A5560" fill-rule="nonzero">
                    <path d="M13.3,0.71 C12.91,0.32 12.28,0.32 11.89,0.71 L7,5.59 L2.11,0.7 C1.72,0.31 1.09,0.31 0.7,0.7 C0.31,1.09 0.31,1.72 0.7,2.11 L5.59,7 L0.7,11.89 C0.31,12.28 0.31,12.91 0.7,13.3 C1.09,13.69 1.72,13.69 2.11,13.3 L7,8.41 L11.89,13.3 C12.28,13.69 12.91,13.69 13.3,13.3 C13.69,12.91 13.69,12.28 13.3,11.89 L8.41,7 L13.3,2.11 C13.68,1.73 13.68,1.09 13.3,0.71 Z" id="Path"></path>
                </g>
            </g>
        </g>
    </g>
</svg>