<svg width="32" height="32" viewBox="0 0 32 32" fill="currentColor" xmlns="http://www.w3.org/2000/svg">
<path d="M18.5781 19.7891C17.8229 20.3099 16.9635 20.5703 16 20.5703C15.0365 20.5703 14.1641 20.3099 13.3828 19.7891C12.6276 19.2422 12.0807 18.5391 11.7422 17.6797H20.2578C19.9193 18.5391 19.3594 19.2422 18.5781 19.7891ZM13.9297 14.8281C13.6953 15.0625 13.4089 15.1797 13.0703 15.1797C12.7318 15.1797 12.4323 15.0625 12.1719 14.8281C11.9375 14.5677 11.8203 14.2682 11.8203 13.9297C11.8203 13.5911 11.9375 13.3047 12.1719 13.0703C12.4323 12.8099 12.7318 12.6797 13.0703 12.6797C13.4089 12.6797 13.6953 12.8099 13.9297 13.0703C14.1901 13.3047 14.3203 13.5911 14.3203 13.9297C14.3203 14.2682 14.1901 14.5677 13.9297 14.8281ZM19.7891 14.8281C19.5547 15.0625 19.2682 15.1797 18.9297 15.1797C18.5911 15.1797 18.2917 15.0625 18.0312 14.8281C17.7969 14.5677 17.6797 14.2682 17.6797 13.9297C17.6797 13.5911 17.7969 13.3047 18.0312 13.0703C18.2917 12.8099 18.5911 12.6797 18.9297 12.6797C19.2682 12.6797 19.5547 12.8099 19.7891 13.0703C20.0495 13.3047 20.1797 13.5911 20.1797 13.9297C20.1797 14.2682 20.0495 14.5677 19.7891 14.8281ZM11.2734 20.7266C12.6016 22.0286 14.1771 22.6797 16 22.6797C17.8229 22.6797 19.3854 22.0286 20.6875 20.7266C22.0156 19.3984 22.6797 17.8229 22.6797 16C22.6797 14.1771 22.0156 12.6146 20.6875 11.3125C19.3854 9.98438 17.8229 9.32031 16 9.32031C14.1771 9.32031 12.6016 9.98438 11.2734 11.3125C9.97135 12.6146 9.32031 14.1771 9.32031 16C9.32031 17.8229 9.97135 19.3984 11.2734 20.7266ZM10.1016 10.1406C11.7422 8.5 13.7083 7.67969 16 7.67969C18.2917 7.67969 20.2448 8.5 21.8594 10.1406C23.5 11.7552 24.3203 13.7083 24.3203 16C24.3203 18.2917 23.5 20.2578 21.8594 21.8984C20.2448 23.513 18.2917 24.3203 16 24.3203C13.7083 24.3203 11.7422 23.513 10.1016 21.8984C8.48698 20.2578 7.67969 18.2917 7.67969 16C7.67969 13.7083 8.48698 11.7552 10.1016 10.1406Z" fill="currentColor"/>
</svg>
