<svg width="32" height="32" viewBox="0 0 32 32" fill="currentColor" xmlns="http://www.w3.org/2000/svg">
<path d="M18.5 13.5V11.8203H13.5V20.1797H18.5V18.5H15.1797V16.8203H18.5V15.1797H15.1797V13.5H18.5ZM21.8203 8.5C22.263 8.5 22.6536 8.66927 22.9922 9.00781C23.3307 9.34635 23.5 9.73698 23.5 10.1797V21.8203C23.5 22.263 23.3307 22.6536 22.9922 22.9922C22.6536 23.3307 22.263 23.5 21.8203 23.5H10.1797C9.73698 23.5 9.34635 23.3307 9.00781 22.9922C8.66927 22.6536 8.5 22.263 8.5 21.8203V10.1797C8.5 9.73698 8.66927 9.34635 9.00781 9.00781C9.34635 8.66927 9.73698 8.5 10.1797 8.5H21.8203Z" fill="currentColor"/>
</svg>
