<svg width="32" height="32" viewBox="0 0 32 32" fill="currentColor" xmlns="http://www.w3.org/2000/svg">
<path d="M13.9297 18.0703C14.5026 18.6432 15.1927 18.9297 16 18.9297C16.8073 18.9297 17.4974 18.6432 18.0703 18.0703C18.6432 17.4974 18.9297 16.8073 18.9297 16C18.9297 15.1927 18.6432 14.5026 18.0703 13.9297C17.4974 13.3568 16.8073 13.0703 16 13.0703C15.1927 13.0703 14.5026 13.3568 13.9297 13.9297C13.3568 14.5026 13.0703 15.1927 13.0703 16C13.0703 16.8073 13.3568 17.4974 13.9297 18.0703ZM22.2109 16.8203L23.9688 18.1875C24.151 18.3177 24.1771 18.5 24.0469 18.7344L22.3672 21.625C22.263 21.8073 22.0938 21.8594 21.8594 21.7812L19.7891 20.9609C19.2422 21.3516 18.7734 21.625 18.3828 21.7812L18.0703 23.9688C18.0182 24.2031 17.888 24.3203 17.6797 24.3203H14.3203C14.112 24.3203 13.9818 24.2031 13.9297 23.9688L13.6172 21.7812C13.1224 21.5729 12.6536 21.2995 12.2109 20.9609L10.1406 21.7812C9.90625 21.8594 9.73698 21.8073 9.63281 21.625L7.95312 18.7344C7.82292 18.5 7.84896 18.3177 8.03125 18.1875L9.78906 16.8203C9.76302 16.638 9.75 16.3646 9.75 16C9.75 15.6354 9.76302 15.362 9.78906 15.1797L8.03125 13.8125C7.84896 13.6823 7.82292 13.5 7.95312 13.2656L9.63281 10.375C9.73698 10.1927 9.90625 10.1406 10.1406 10.2188L12.2109 11.0391C12.7578 10.6484 13.2266 10.375 13.6172 10.2188L13.9297 8.03125C13.9818 7.79688 14.112 7.67969 14.3203 7.67969H17.6797C17.888 7.67969 18.0182 7.79688 18.0703 8.03125L18.3828 10.2188C18.8776 10.4271 19.3464 10.7005 19.7891 11.0391L21.8594 10.2188C22.0938 10.1406 22.263 10.1927 22.3672 10.375L24.0469 13.2656C24.1771 13.5 24.151 13.6823 23.9688 13.8125L22.2109 15.1797C22.237 15.362 22.25 15.6354 22.25 16C22.25 16.3646 22.237 16.638 22.2109 16.8203Z" fill="currentColor"/>
</svg>
